<svg width="180" height="180" viewBox="0 0 180 180" fill="none" xmlns="http://www.w3.org/2000/svg">
  <g id="share-2" opacity="0.1">
    <g id="Group 4">
    <path id="Vector" d="M35.8749 89.999C35.8749 97.3858 29.8867 103.374 22.4999 103.374C15.1131 103.374 9.12494 97.3858 9.12494 89.999C9.12494 82.6122 15.1131 76.624 22.4999 76.624C29.8867 76.624 35.8749 82.6122 35.8749 89.999Z" fill="white" stroke="white" stroke-width="7" stroke-linecap="round" stroke-linejoin="round"/>
    <path id="Vector_2" d="M101.459 89.999C101.459 97.6172 95.7512 103.374 89.2092 103.374C82.6673 103.374 76.9592 97.6172 76.9592 89.999C76.9592 82.3809 82.6673 76.624 89.2092 76.624C95.7512 76.624 101.459 82.3809 101.459 89.999Z" fill="white" stroke="white" stroke-width="7" stroke-linecap="round" stroke-linejoin="round"/>
    <path id="Vector_3" d="M103.375 26.2085C103.375 32.7505 97.6181 38.4585 89.9999 38.4585C82.3818 38.4585 76.6249 32.7505 76.6249 26.2085C76.6249 19.6665 82.3818 13.9585 89.9999 13.9585C97.6181 13.9585 103.375 19.6665 103.375 26.2085Z" fill="white" stroke="white" stroke-width="7" stroke-linecap="round" stroke-linejoin="round"/>
    <path id="Vector_4" d="M170.875 89.999C170.875 97.3858 164.887 103.374 157.5 103.374C150.113 103.374 144.125 97.3858 144.125 89.999C144.125 82.6122 150.113 76.624 157.5 76.624C164.887 76.624 170.875 82.6122 170.875 89.999Z" fill="white" stroke="white" stroke-width="7" stroke-linecap="round" stroke-linejoin="round"/>
    <path id="Vector_5" d="M103.375 157.499C103.375 164.886 97.3867 170.874 89.9999 170.874C82.6131 170.874 76.6249 164.886 76.6249 157.499C76.6249 150.112 82.6131 144.124 89.9999 144.124C97.3867 144.124 103.375 150.112 103.375 157.499Z" fill="white" stroke="white" stroke-width="7" stroke-linecap="round" stroke-linejoin="round"/>
    <path id="Vector_6" d="M58.3749 50.624C58.3749 54.9042 54.9051 58.374 50.6249 58.374C46.3447 58.374 42.8749 54.9042 42.8749 50.624C42.8749 46.3438 46.3447 42.874 50.6249 42.874C54.9051 42.874 58.3749 46.3438 58.3749 50.624Z" fill="white" stroke="white" stroke-width="7" stroke-linecap="round" stroke-linejoin="round"/>
    <path id="Vector_7" d="M137.125 50.624C137.125 54.9042 133.655 58.374 129.375 58.374C125.095 58.374 121.625 54.9042 121.625 50.624C121.625 46.3438 125.095 42.874 129.375 42.874C133.655 42.874 137.125 46.3438 137.125 50.624Z" fill="white" stroke="white" stroke-width="7" stroke-linecap="round" stroke-linejoin="round"/>
    <path id="Vector_8" d="M137.125 123.749C137.125 128.029 133.655 131.499 129.375 131.499C125.095 131.499 121.625 128.029 121.625 123.749C121.625 119.469 125.095 115.999 129.375 115.999C133.655 115.999 137.125 119.469 137.125 123.749Z" fill="white" stroke="white" stroke-width="7" stroke-linecap="round" stroke-linejoin="round"/>
    <path id="Vector_9" d="M58.3749 123.749C58.3749 128.029 54.9051 131.499 50.6249 131.499C46.3447 131.499 42.8749 128.029 42.8749 123.749C42.8749 119.469 46.3447 115.999 50.6249 115.999C54.9051 115.999 58.3749 119.469 58.3749 123.749Z" fill="white" stroke="white" stroke-width="7" stroke-linecap="round" stroke-linejoin="round"/>
    </g>
  </g>
</svg>
